<svg xmlns="http://www.w3.org/2000/svg" viewBox="0 0 664 127">
  <title>Kiiiyo's IO</title>
  <g id="logo" data-name="logo">
    <path d="M22,2.38V43.82L61,2.38H88.48L49.42,41.86l42.84,60.48H64.68L34.58,57.4,22,70.14v32.2H0V2.38Z"/><path d="M102.34,18.76V2.38h19.88V18.76ZM122.22,30v72.38H102.34V30Z"/><path d="M144.06,18.76V2.38h19.88V18.76ZM163.94,30v72.38H144.06V30Z"/><path d="M185.78,18.76V2.38h19.88V18.76ZM205.66,30v72.38H185.78V30Z"/><path d="M253.67,123.9q-5.73,3.78-16,3.78-3.08,0-6.09-.21t-6.08-.49V110.6l5.73.56a41.25,41.25,0,0,0,5.88.14,7.71,7.71,0,0,0,5.81-3.08,9.84,9.84,0,0,0,1.89-5.88,11.93,11.93,0,0,0-.83-4.48L218.67,30h21.14l16.38,49.56h.29L272.29,30h20.59L262.63,111.3Q259.42,120.12,253.67,123.9Z"/><path d="M300,50.47a33.1,33.1,0,0,1,19.32-19.74A41.38,41.38,0,0,1,334.73,28a41.86,41.86,0,0,1,15.47,2.73,33,33,0,0,1,19.39,19.74,44.26,44.26,0,0,1,2.66,15.75,43.71,43.71,0,0,1-2.66,15.68,33.86,33.86,0,0,1-7.56,12,32.89,32.89,0,0,1-11.83,7.63,42.92,42.92,0,0,1-15.47,2.66,42.42,42.42,0,0,1-15.4-2.66,33.13,33.13,0,0,1-11.76-7.63,34.14,34.14,0,0,1-7.56-12,43.93,43.93,0,0,1-2.66-15.68A44.48,44.48,0,0,1,300,50.47Zm18.06,24.22a22.64,22.64,0,0,0,2.87,7.42,15.4,15.4,0,0,0,5.39,5.25,16.42,16.42,0,0,0,8.4,2,16.79,16.79,0,0,0,8.47-2,15.11,15.11,0,0,0,5.46-5.25,22.42,22.42,0,0,0,2.87-7.42,42.39,42.39,0,0,0,.84-8.47,43.46,43.46,0,0,0-.84-8.54,21.68,21.68,0,0,0-2.87-7.42A15.8,15.8,0,0,0,343.2,45a16.39,16.39,0,0,0-8.47-2,15.29,15.29,0,0,0-13.79,7.28,21.88,21.88,0,0,0-2.87,7.42,43.46,43.46,0,0,0-.84,8.54A42.39,42.39,0,0,0,318.07,74.69Z"/><path d="M401.37,2.38V23.8A23.08,23.08,0,0,1,400,32.48a22.36,22.36,0,0,1-4.13,7.14,22.91,22.91,0,0,1-14.42,7.7V38.08q5.33-1.81,7.28-5.39a17.94,17.94,0,0,0,2-8.75h-9.24V2.38Z"/><path d="M426.78,84.35a11.66,11.66,0,0,0,3.43,3.78A14.77,14.77,0,0,0,435,90.3a22.58,22.58,0,0,0,5.67.7,21,21,0,0,0,4.41-.49,15.11,15.11,0,0,0,4.2-1.54,9.51,9.51,0,0,0,3.15-2.8,7.37,7.37,0,0,0,1.26-4.41q0-4.49-6-6.72a118.3,118.3,0,0,0-16.59-4.48q-4.33-1-8.47-2.31a29.05,29.05,0,0,1-7.35-3.5,17.2,17.2,0,0,1-5.18-5.46,15.54,15.54,0,0,1-2-8q0-7,2.73-11.48a20.18,20.18,0,0,1,7.21-7.07,31.59,31.59,0,0,1,10.08-3.64A62.22,62.22,0,0,1,439.73,28a57,57,0,0,1,11.41,1.12A30.27,30.27,0,0,1,461,32.9,22.52,22.52,0,0,1,468.22,40a23.63,23.63,0,0,1,3.43,11.13h-18.9q-.42-5.74-4.34-7.77a19.86,19.86,0,0,0-9.24-2,34.36,34.36,0,0,0-3.64.21,12.15,12.15,0,0,0-3.57.91,7.41,7.41,0,0,0-2.73,2A5.41,5.41,0,0,0,428.11,48a5.48,5.48,0,0,0,2,4.34,15.14,15.14,0,0,0,5.11,2.73A64.26,64.26,0,0,0,442.39,57q4.07.84,8.26,1.82a83.25,83.25,0,0,1,8.47,2.38,27.56,27.56,0,0,1,7.35,3.71,17.79,17.79,0,0,1,5.18,5.74,16.82,16.82,0,0,1,2,8.47,22,22,0,0,1-10.36,19.74A30.61,30.61,0,0,1,452.68,103a61.78,61.78,0,0,1-12.11,1.19,60,60,0,0,1-12.32-1.26,32.58,32.58,0,0,1-10.71-4.2,24.12,24.12,0,0,1-7.7-7.77,24.45,24.45,0,0,1-3.29-12.11h18.9A11,11,0,0,0,426.78,84.35Z"/><path d="M548.23,2.38v100h-22V2.38Z"/><path d="M569.37,32A50,50,0,0,1,579,15.26,44.24,44.24,0,0,1,594.5,4.06a54.72,54.72,0,0,1,41.37,0,44.34,44.34,0,0,1,15.4,11.2A50,50,0,0,1,660.93,32a62.43,62.43,0,0,1,3.36,20.79,60.37,60.37,0,0,1-3.36,20.37,48.68,48.68,0,0,1-9.66,16.45,44.33,44.33,0,0,1-15.4,11,55.61,55.61,0,0,1-41.37,0A44.24,44.24,0,0,1,579,89.6a48.68,48.68,0,0,1-9.66-16.45A60.37,60.37,0,0,1,566,52.78,62.43,62.43,0,0,1,569.37,32Zm20.09,33a33,33,0,0,0,4.69,10.71,24.1,24.1,0,0,0,8.4,7.63,29.09,29.09,0,0,0,25.2,0,24.1,24.1,0,0,0,8.4-7.63A33,33,0,0,0,640.84,65a50.9,50.9,0,0,0,1.47-12.25A54.7,54.7,0,0,0,640.84,40a33.64,33.64,0,0,0-4.69-11,23.82,23.82,0,0,0-8.4-7.7,29.09,29.09,0,0,0-25.2,0,23.82,23.82,0,0,0-8.4,7.7,33.64,33.64,0,0,0-4.69,11A54.7,54.7,0,0,0,588,52.78,50.9,50.9,0,0,0,589.46,65Z"/>
  </g>
</svg>